STARTFONT 2.1
FONT -AK Design-Seymour-Bold-R-Normal-Sans-32-320-100-100-M-320-CDC6000-1
SIZE 32 100 100
FONTBOUNDINGBOX 32 34 -4 -6
STARTPROPERTIES 25
FONTNAME_REGISTRY ""
FOUNDRY "AK Design"
FAMILY_NAME "Seymour"
WEIGHT_NAME "Bold"
SLANT "R"
SETWIDTH_NAME "Normal"
ADD_STYLE_NAME "Sans"
PIXEL_SIZE 32
POINT_SIZE 320
RESOLUTION_X 100
RESOLUTION_Y 100
SPACING "M"
AVERAGE_WIDTH 320
CHARSET_REGISTRY "CDC6000"
CHARSET_ENCODING "1"
COPYRIGHT "Copyright Paul Koning, 2003."
FACE_NAME "Seymour"
X_HEIGHT 28
CAP_HEIGHT 28
WEIGHT 10
RESOLUTION 100
QUAD_WIDTH 32
FONT_ASCENT 28
FONT_DESCENT 4
_XMBDFED_INFO "Edited with xmbdfed 4.5."
ENDPROPERTIES
CHARS 47
STARTCHAR char65
ENCODING 1
SWIDTH 720 0
DWIDTH 32 0
BBX 21 25 0 0
BITMAP
007800
00F800
00F800
00FC00
01FC00
01FC00
01DE00
039E00
039E00
038F00
070F00
070F00
070F80
0E0780
0E0780
0E07C0
1FFFC0
1FFFC0
1C03E0
3801E0
3801E0
3800F0
7000F0
7000F0
F00078
ENDCHAR
STARTCHAR char66
ENCODING 2
SWIDTH 720 0
DWIDTH 32 0
BBX 16 25 3 0
BITMAP
FFF0
FFFC
F07C
F03E
F01E
F01E
F01E
F01E
F03C
F07C
F0F8
FFF0
FFF0
F0F8
F03C
F01E
F00F
F00F
F00F
F00F
F00F
F01E
F03E
FFFC
FFF0
ENDCHAR
STARTCHAR char67
ENCODING 3
SWIDTH 720 0
DWIDTH 32 0
BBX 18 25 2 0
BITMAP
01FF00
07FFC0
0F83C0
1E00C0
3C0000
3C0000
780000
780000
F80000
F00000
F00000
F00000
F00000
F00000
F00000
F00000
F00000
780000
780000
3C0000
3E0000
1F0000
0FC1C0
07FFC0
00FF00
ENDCHAR
STARTCHAR char68
ENCODING 4
SWIDTH 720 0
DWIDTH 32 0
BBX 18 25 2 0
BITMAP
FFF000
FFFC00
F07E00
F01F00
F00F80
F00780
F00780
F003C0
F003C0
F003C0
F003C0
F003C0
F003C0
F003C0
F003C0
F003C0
F003C0
F00780
F00780
F00780
F00F00
F01F00
F07E00
FFF800
FFE000
ENDCHAR
STARTCHAR char69
ENCODING 5
SWIDTH 720 0
DWIDTH 32 0
BBX 16 25 4 0
BITMAP
FFFE
FFFE
F000
F000
F000
F000
F000
F000
F000
F000
F000
FFFC
FFF8
F000
F000
F000
F000
F000
F000
F000
F000
F000
F000
FFFF
FFFF
ENDCHAR
STARTCHAR char70
ENCODING 6
SWIDTH 720 0
DWIDTH 32 0
BBX 16 25 4 0
BITMAP
FFFF
FFFF
F000
F000
F000
F000
F000
F000
F000
F000
F000
FFFC
FFFC
F000
F000
F000
F000
F000
F000
F000
F000
F000
F000
F000
F000
ENDCHAR
STARTCHAR char71
ENCODING 7
SWIDTH 720 0
DWIDTH 32 0
BBX 18 25 1 0
BITMAP
01FF80
07FFC0
0F81C0
1E0000
3C0000
3C0000
780000
780000
F00000
F00000
F00000
F00000
F00000
F00000
F003C0
F003C0
F803C0
7803C0
7803C0
3C03C0
3E03C0
1F03C0
0FC3C0
07FFC0
00FF00
ENDCHAR
STARTCHAR char72
ENCODING 8
SWIDTH 720 0
DWIDTH 32 0
BBX 17 25 2 0
BITMAP
F00780
F00780
F00780
F00780
F00780
F00780
F00780
F00780
F00780
F00780
F00780
FFFF80
FFFF80
F00780
F00780
F00780
F00780
F00780
F00780
F00780
F00780
F00780
F00780
F00780
F00780
ENDCHAR
STARTCHAR char73
ENCODING 9
SWIDTH 720 0
DWIDTH 32 0
BBX 16 25 3 0
BITMAP
FFFF
FFFF
03C0
03C0
03C0
03C0
03C0
03C0
03C0
03C0
03C0
03C0
03C0
03C0
03C0
03C0
03C0
03C0
03C0
03C0
03C0
03C0
03C0
FFFF
FFFF
ENDCHAR
STARTCHAR char74
ENCODING 10
SWIDTH 720 0
DWIDTH 32 0
BBX 13 25 3 0
BITMAP
3FF8
3FF8
0078
0078
0078
0078
0078
0078
0078
0078
0078
0078
0078
0078
0078
0078
0078
0078
0078
0078
0078
00F0
E1E0
FFE0
7F80
ENDCHAR
STARTCHAR char75
ENCODING 11
SWIDTH 720 0
DWIDTH 32 0
BBX 18 25 3 0
BITMAP
F00F00
F01E00
F01C00
F03800
F07800
F0F000
F0E000
F1C000
F3C000
F78000
F70000
FF0000
FF0000
FF8000
F7C000
F3C000
F3E000
F1F000
F0F800
F07C00
F03C00
F03E00
F01F00
F00F80
F007C0
ENDCHAR
STARTCHAR char76
ENCODING 12
SWIDTH 720 0
DWIDTH 32 0
BBX 15 25 4 0
BITMAP
F000
F000
F000
F000
F000
F000
F000
F000
F000
F000
F000
F000
F000
F000
F000
F000
F000
F000
F000
F000
F000
F000
F000
FFFE
FFFE
ENDCHAR
STARTCHAR char77
ENCODING 13
SWIDTH 720 0
DWIDTH 32 0
BBX 19 25 1 0
BITMAP
F803E0
F803E0
F803E0
FC07E0
FC07E0
FC07E0
FC07E0
FE0FE0
EE0EE0
EE0EE0
EE0EE0
EF1EE0
E71CE0
E71CE0
E71CE0
E3B8E0
E3B8E0
E3B8E0
E3B8E0
E1F0E0
E1F0E0
E1F0E0
E0E0E0
E000E0
E000E0
ENDCHAR
STARTCHAR char78
ENCODING 14
SWIDTH 720 0
DWIDTH 32 0
BBX 17 25 2 0
BITMAP
F00380
F80380
F80380
FC0380
FC0380
FE0380
FE0380
EF0380
EF8380
E78380
E7C380
E3C380
E3E380
E1E380
E1F380
E0F380
E07B80
E07F80
E03F80
E03F80
E01F80
E01F80
E00F80
E00780
E00780
ENDCHAR
STARTCHAR char79
ENCODING 15
SWIDTH 720 0
DWIDTH 32 0
BBX 19 25 1 0
BITMAP
03F800
0FFE00
1F1F00
3C0780
3C0780
7803C0
7803C0
7803C0
F001E0
F001E0
F001E0
F001E0
F001E0
F001E0
F001E0
F001E0
F001E0
7803C0
7803C0
7803C0
3C0780
3E0F80
1F1F00
0FFE00
03F800
ENDCHAR
STARTCHAR char80
ENCODING 16
SWIDTH 720 0
DWIDTH 32 0
BBX 16 25 4 0
BITMAP
FFF0
FFFC
F03E
F01F
F00F
F00F
F00F
F00F
F00F
F01E
F01E
F07C
FFF8
FFC0
F000
F000
F000
F000
F000
F000
F000
F000
F000
F000
F000
ENDCHAR
STARTCHAR char81
ENCODING 17
SWIDTH 720 0
DWIDTH 32 0
BBX 20 31 1 -6
BITMAP
03F800
0FFE00
1F1F00
3C0780
3C0780
7803C0
7803C0
7803C0
F001E0
F001E0
F001E0
F001E0
F001E0
F001E0
F001E0
F001E0
F001E0
7803E0
7803C0
7803C0
3C07C0
3E0F80
1F1F80
0FFF00
03FE00
003C00
001F00
000FC0
0007F0
0003E0
0000C0
ENDCHAR
STARTCHAR char82
ENCODING 18
SWIDTH 720 0
DWIDTH 32 0
BBX 18 25 3 0
BITMAP
FFE000
FFF800
F07C00
F03E00
F01E00
F01E00
F01E00
F01E00
F03E00
F07C00
F0FC00
FFF800
FFF000
F3E000
F1E000
F0F000
F0F000
F07800
F07C00
F03C00
F03E00
F01F00
F00F00
F00F80
F007C0
ENDCHAR
STARTCHAR char83
ENCODING 19
SWIDTH 720 0
DWIDTH 32 0
BBX 17 25 3 0
BITMAP
0FFC00
3FFF00
7C0F00
780000
F00000
F00000
F00000
F80000
F80000
7E0000
3F8000
0FE000
03F800
00FE00
003F00
001F00
000F80
000780
000780
000780
000780
C00F00
F83E00
FFFC00
1FF000
ENDCHAR
STARTCHAR char84
ENCODING 20
SWIDTH 720 0
DWIDTH 32 0
BBX 20 25 1 0
BITMAP
FFFFF0
FFFFF0
00F000
00F000
00F000
00F000
00F000
00F000
00F000
00F000
00F000
00F000
00F000
00F000
00F000
00F000
00F000
00F000
00F000
00F000
00F000
00F000
00F000
00F000
00F000
ENDCHAR
STARTCHAR char85
ENCODING 21
SWIDTH 720 0
DWIDTH 32 0
BBX 16 25 3 0
BITMAP
F007
F007
F007
F007
F007
F007
F007
F007
F007
F007
F007
F007
F007
F007
F007
F007
F007
F007
F007
F007
F80E
780E
7C1E
3FFC
0FF0
ENDCHAR
STARTCHAR char86
ENCODING 22
SWIDTH 720 0
DWIDTH 32 0
BBX 21 25 0 0
BITMAP
F00078
780070
780070
7800E0
3C00E0
3C00E0
3C01C0
1E01C0
1E01C0
1E0380
0F0380
0F0380
0F0700
078700
078700
078E00
03CE00
03CE00
03DC00
01FC00
01FC00
01F800
01F800
00F800
00F000
ENDCHAR
STARTCHAR char87
ENCODING 23
SWIDTH 720 0
DWIDTH 32 0
BBX 21 25 0 0
BITMAP
E00038
E00038
E0F038
E0F070
F1F870
F1F870
71F870
71F870
71F870
71F8E0
73BCE0
73BCE0
7BBCE0
7B9CE0
7B1CE0
7F1DE0
7F1FC0
7F1FC0
7F0FC0
3E0FC0
3E0FC0
3E0FC0
3E0F80
3C0780
3C0780
ENDCHAR
STARTCHAR char88
ENCODING 24
SWIDTH 720 0
DWIDTH 32 0
BBX 21 25 0 0
BITMAP
7C00F0
3C00E0
3E01E0
1F03C0
0F0380
0F8780
078700
03CE00
03FE00
01FC00
01F800
00F800
007800
00FC00
01FC00
01FE00
039F00
078F00
070F80
0E0780
1E03C0
1C03E0
3801E0
7801F0
F000F8
ENDCHAR
STARTCHAR char89
ENCODING 25
SWIDTH 720 0
DWIDTH 32 0
BBX 21 25 0 0
BITMAP
F80078
7800F0
3C00E0
3E01E0
1E03C0
1F0380
0F0780
0F8700
078E00
07CE00
03FC00
01FC00
01F800
00F000
00F000
00F000
00F000
00F000
00F000
00F000
00F000
00F000
00F000
00F000
00F000
ENDCHAR
STARTCHAR char90
ENCODING 26
SWIDTH 720 0
DWIDTH 32 0
BBX 18 25 2 0
BITMAP
7FFFC0
7FFFC0
0007C0
000F80
000F00
001F00
001E00
003C00
007C00
007800
00F800
01F000
01E000
03E000
07C000
078000
0F8000
1F0000
1E0000
3E0000
7C0000
780000
F80000
FFFFC0
FFFFC0
ENDCHAR
STARTCHAR char48
ENCODING 27
SWIDTH 720 0
DWIDTH 32 0
BBX 18 25 2 0
BITMAP
03F000
0FFC00
1E1E00
3C0F00
381F00
781F80
781F80
703F80
F03BC0
F073C0
F073C0
F0E3C0
F1E3C0
F1E3C0
F3C3C0
F383C0
F783C0
7F0380
7E0780
7E0780
3C0700
3C0F00
1E1E00
0FFC00
03F000
ENDCHAR
STARTCHAR char49
ENCODING 28
SWIDTH 720 0
DWIDTH 32 0
BBX 18 25 3 0
BITMAP
006000
03E000
1FE000
FFE000
E1E000
01E000
01E000
01E000
01E000
01E000
01E000
01E000
01E000
01E000
01E000
01E000
01E000
01E000
01E000
01E000
01E000
01E000
01E000
FFFFC0
FFFFC0
ENDCHAR
STARTCHAR char50
ENCODING 29
SWIDTH 720 0
DWIDTH 32 0
BBX 15 25 3 0
BITMAP
1FE0
7FF0
787C
603C
001E
001E
001E
001E
001E
003C
003C
0078
00F0
01E0
03C0
0780
0F00
0E00
1E00
3C00
7C00
F800
F800
FFFE
FFFE
ENDCHAR
STARTCHAR char51
ENCODING 30
SWIDTH 720 0
DWIDTH 32 0
BBX 14 25 4 0
BITMAP
7F80
FFE0
E1F0
00F8
0078
0078
0078
0078
0070
00F0
01E0
3F80
3FE0
01F8
0078
007C
003C
003C
003C
003C
007C
0078
E0F0
FFE0
7F80
ENDCHAR
STARTCHAR char52
ENCODING 31
SWIDTH 720 0
DWIDTH 32 0
BBX 17 25 2 0
BITMAP
003C00
007C00
007C00
00FC00
01FC00
01FC00
03BC00
07BC00
073C00
0E3C00
1E3C00
1C3C00
3C3C00
783C00
703C00
F03C00
FFFF80
FFFF80
003C00
003C00
003C00
003C00
003C00
003C00
003C00
ENDCHAR
STARTCHAR char53
ENCODING 32
SWIDTH 720 0
DWIDTH 32 0
BBX 13 25 5 0
BITMAP
FFF0
FFF0
E000
E000
E000
E000
E000
E000
E000
FE00
FF80
07E0
01F0
00F0
0078
0078
0078
0078
0078
0078
00F0
00F0
E3E0
FFC0
7F00
ENDCHAR
STARTCHAR char54
ENCODING 33
SWIDTH 720 0
DWIDTH 32 0
BBX 17 25 3 0
BITMAP
01FE00
07FF00
1F0700
1C0000
3C0000
780000
780000
700000
F00000
F3F800
FFFC00
FE3E00
F81F00
F80F00
F00780
F00780
F00780
F00780
700780
780780
780F00
3C0F00
1E3E00
0FFC00
07F000
ENDCHAR
STARTCHAR char55
ENCODING 34
SWIDTH 720 0
DWIDTH 32 0
BBX 16 25 3 0
BITMAP
FFFF
FFFF
FFFF
000E
001E
001C
003C
0038
0070
00F0
00E0
01E0
01C0
03C0
0380
0780
0F00
0F00
1E00
1E00
3E00
3C00
3C00
7800
7800
ENDCHAR
STARTCHAR char56
ENCODING 35
SWIDTH 720 0
DWIDTH 32 0
BBX 17 25 2 0
BITMAP
07F000
1FFC00
3E3C00
7C1E00
780E00
780E00
780E00
7C1E00
3E1C00
3F7C00
1FF800
0FF000
1FF800
3CFE00
783F00
781F00
F00F80
F00780
F00780
F00780
F80780
780F00
7E1E00
1FFC00
07F000
ENDCHAR
STARTCHAR char57
ENCODING 36
SWIDTH 720 0
DWIDTH 32 0
BBX 17 25 2 0
BITMAP
07F000
1FF800
3E3C00
781E00
780F00
F00700
F00700
F00780
F00780
F00780
F00780
780F80
780F80
3E3F80
1FFF80
0FE780
000780
000700
000F00
000F00
001E00
001C00
707C00
7FF000
3FC000
ENDCHAR
STARTCHAR char43
ENCODING 37
SWIDTH 720 0
DWIDTH 32 0
BBX 19 18 1 0
BITMAP
00E000
00E000
00E000
00E000
00E000
00E000
00E000
00E000
FFFFE0
FFFFE0
00E000
00E000
00E000
00E000
00E000
00E000
00E000
00E000
ENDCHAR
STARTCHAR char45
ENCODING 38
SWIDTH 720 0
DWIDTH 32 0
BBX 19 2 1 7
BITMAP
FFFFE0
FFFFE0
ENDCHAR
STARTCHAR char42
ENCODING 39
SWIDTH 720 0
DWIDTH 32 0
BBX 16 14 3 11
BITMAP
03C0
03C0
03C0
63C6
73CE
FC3F
FE7F
0C60
0660
0FF0
1E78
3E7C
3C3C
0C30
ENDCHAR
STARTCHAR char47
ENCODING 40
SWIDTH 720 0
DWIDTH 32 0
BBX 19 32 1 -6
BITMAP
0001E0
0001C0
0003C0
000380
000780
000700
000F00
000E00
001E00
001C00
001C00
003800
003800
007000
007000
00E000
00E000
01C000
01C000
038000
038000
070000
070000
0F0000
0E0000
1E0000
1C0000
3C0000
380000
780000
700000
F00000
ENDCHAR
STARTCHAR char40
ENCODING 41
SWIDTH 720 0
DWIDTH 32 0
BBX 13 32 6 -6
BITMAP
0078
01F8
03F0
0FC0
0F00
1E00
3E00
3C00
7800
7800
7800
F000
F000
F000
F000
F000
F000
F000
F000
F000
7000
7800
7800
3800
3C00
1E00
1E00
0F00
07C0
03F0
01F8
0038
ENDCHAR
STARTCHAR char41
ENCODING 42
SWIDTH 720 0
DWIDTH 32 0
BBX 13 32 3 -6
BITMAP
E000
FC00
7E00
1F00
0780
03C0
03E0
01E0
00F0
00F0
00F0
0070
0078
0078
0078
0078
0078
0078
0078
0078
0078
00F0
00F0
00F0
01E0
03E0
03C0
0780
1F00
7E00
FC00
E000
ENDCHAR
STARTCHAR char36
ENCODING 43
SWIDTH 720 0
DWIDTH 32 0
BBX 15 30 4 -3
BITMAP
0380
0380
1FF8
3FFC
7F9C
FB80
F380
F380
F380
F380
7B80
7F80
3F80
1FC0
0FE0
03F8
03FC
03FC
03BE
039E
039E
039E
039E
C3BC
FBFC
FFF8
3FE0
0380
0380
0380
ENDCHAR
STARTCHAR char61
ENCODING 44
SWIDTH 720 0
DWIDTH 32 0
BBX 19 8 1 5
BITMAP
FFFFE0
FFFFE0
000000
000000
000000
000000
FFFFE0
FFFFE0
ENDCHAR
STARTCHAR char32
ENCODING 45
SWIDTH 720 0
DWIDTH 32 0
BBX 0 0 0 0
BITMAP
ENDCHAR
STARTCHAR char44
ENCODING 46
SWIDTH 720 0
DWIDTH 32 0
BBX 6 11 8 -6
BITMAP
FC
FC
FC
FC
FC
1C
1C
3C
38
78
E0
ENDCHAR
STARTCHAR char46
ENCODING 47
SWIDTH 720 0
DWIDTH 32 0
BBX 6 5 8 0
BITMAP
FC
FC
FC
FC
FC
ENDCHAR
ENDFONT
